<svg width="26" height="27" viewBox="0 0 26 27" fill="none" xmlns="http://www.w3.org/2000/svg">
<g id="Group 44338">
<path id="Rectangle 113" d="M22 12V10C22 5.02944 17.9706 1 13 1V1C8.02944 1 4 5.02944 4 10V12" stroke="black" stroke-width="1.5"/>
<path id="Rectangle 113_2" d="M16 24H17C19.7614 24 22 21.7614 22 19V19" stroke="black" stroke-width="1.5"/>
<path id="Rectangle 114" d="M1 14C1 12.8954 1.89543 12 3 12H5V19H3C1.89543 19 1 18.1046 1 17V14Z" stroke="black" stroke-width="1.5" stroke-linejoin="round"/>
<path id="Rectangle 114_2" d="M25 14C25 12.8954 24.1046 12 23 12H21V19H23C24.1046 19 25 18.1046 25 17V14Z" stroke="black" stroke-width="1.5" stroke-linejoin="round"/>
<rect id="Rectangle 114_3" x="11" y="22.5" width="5" height="3" rx="1.5" stroke="black" stroke-width="1.5"/>
</g>
</svg>
